<!--?xml version="1.0" standalone="no"?--><svg version="1.0" xmlns="http://www.w3.org/2000/svg" width="300.000000pt" height="206.000000pt" viewBox="0 0 300.000000 206.000000" preserveAspectRatio="xMidYMid meet">
<metadata>
  <rdf:rdf xmlns:rdf="http://www.w3.org/1999/02/22-rdf-syntax-ns#" xmlns:rdfs="http://www.w3.org/2000/01/rdf-schema#" xmlns:dc="http://purl.org/dc/elements/1.1/">
    <rdf:description dc:title="ant-black" dc:publisher="Hiox" dc:date="2015-06-09" dc:format="image/svg+xml" dc:language="en">
      <dc:creator>
        <rdf:bag>
          <rdf:li>svgimages.com</rdf:li>
        </rdf:bag>
      </dc:creator>
    </rdf:description>
  </rdf:rdf>
</metadata>
<g transform="translate(0.000000,206.000000) scale(0.100000,-0.100000)" fill="#FF0000" stroke="none">
<path class="node" id="node1" d="M2566 1889 c-15 -12 -40 -45 -57 -74 l-29 -52 -40 7 c-84 15 -163
-16 -210 -85 -49 -71 -62 -123 -58 -224 l3 -88 -48 33 c-78 54 -150 76 -262
82 -151 7 -261 -24 -355 -99 l-39 -32 -35 31 c-227 199 -796 251 -1071 97
-259 -145 -186 -383 158 -519 136 -54 234 -70 437 -70 224 0 295 13 428 80 66
33 96 44 104 36 7 -7 -58 -45 -223 -129 l-234 -118 -27 -90 c-15 -49 -47 -138
-70 -197 l-43 -108 -65 -31 c-36 -17 -82 -38 -103 -46 -78 -32 -26 -21 92 18
l122 41 31 62 c17 33 52 108 77 166 26 58 51 112 56 121 14 22 486 242 497
231 4 -4 -39 -37 -97 -72 -118 -73 -109 -59 -146 -234 -11 -55 -33 -133 -47
-174 l-27 -75 -95 -53 c-52 -30 -91 -54 -87 -54 12 0 154 59 201 84 38 20 42
26 92 166 29 80 53 141 53 135 2 -24 -52 -257 -75 -330 -24 -73 -32 -86 -93
-142 l-66 -63 81 53 c79 51 82 54 112 127 17 41 45 129 63 194 l33 119 106 89
c58 49 131 112 162 139 36 31 66 49 82 49 14 0 26 -3 26 -6 0 -4 -39 -48 -87
-98 l-88 -92 0 -192 0 -192 -85 -86 -85 -87 80 62 c148 113 132 87 145 246 19
237 9 211 110 310 l90 87 47 -40 c99 -83 101 -87 129 -228 13 -71 34 -159 45
-196 21 -71 11 -61 159 -166 21 -15 8 2 -33 43 -64 64 -69 72 -83 139 -9 39
-24 140 -33 224 l-19 153 -73 70 c-60 56 -71 71 -59 79 8 5 18 10 22 10 5 0
220 -192 295 -264 17 -16 30 -56 52 -161 55 -257 55 -255 141 -317 109 -78
113 -78 33 -2 -71 68 -72 70 -87 148 -9 44 -23 139 -31 213 -8 74 -19 142 -24
151 -5 9 -71 78 -145 152 -75 74 -136 138 -136 143 0 4 11 20 25 35 31 33 65
104 65 135 0 37 10 38 37 7 36 -43 124 -83 186 -84 140 -1 237 118 237 294 0
115 -28 189 -114 306 -14 18 36 87 79 110 30 16 41 17 87 7 63 -13 86 -5 37
13 -82 30 -142 12 -204 -62 -31 -37 -31 -37 -58 -19 -35 22 -34 32 6 91 36 53
89 79 144 69 17 -3 34 -1 38 5 4 6 -18 10 -63 10 -55 0 -75 -4 -96 -21z m27
-331 c75 -93 19 -205 -68 -136 -56 43 -71 123 -31 163 31 31 58 23 99 -27z
m-2017 -132 c18 -14 18 -15 -11 -21 -58 -13 -107 -39 -135 -74 -24 -29 -30
-32 -36 -18 -9 25 27 79 72 104 45 26 82 29 110 9z m955 -678 c-61 -57 -86
-65 -62 -19 9 16 106 81 121 80 3 0 -24 -27 -59 -61z"></path>
<path class="node" id="node2" d="M2530 1530 c-15 -28 5 -96 31 -111 44 -23 63 29 35 96 -17 40 -49 47
-66 15z"></path>
</g>
<g transform="translate(0.000000,206.000000) scale(0.100000,-0.100000)" fill="#FF0000" stroke="none">

<path class="node" id="node4" d="M2494 1585 c-40 -40 -25 -120 31 -163 87 -69 143 43 68 136 -41 50
-68 58 -99 27z m102 -70 c28 -67 9 -119 -35 -96 -26 15 -46 83 -31 111 17 32
49 25 66 -15z"></path>
<path class="node" id="node5" d="M466 1417 c-45 -25 -81 -79 -72 -104 6 -14 12 -11 36 18 28 35 77 61
135 74 29 6 29 7 11 21 -28 20 -65 17 -110 -9z"></path>

</g>
</svg>